<svg width="137" height="138" viewBox="0 0 137 138" fill="none" xmlns="http://www.w3.org/2000/svg">
<path fill-rule="evenodd" clip-rule="evenodd" d="M46.9725 0C39.2443 0 31.833 3.09236 26.3684 8.59681L0 35.1575V47.3153C0 55.9048 3.66283 63.6325 9.50098 69C3.66283 74.3675 0 82.0951 0 90.6846V102.842L26.3684 129.403C31.833 134.908 39.2443 138 46.9725 138C55.4997 138 63.1714 134.311 68.5 128.43C73.8286 134.311 81.5003 138 90.0275 138C97.7557 138 105.167 134.908 110.632 129.403L137 102.842V90.6846C137 82.0951 133.337 74.3675 127.499 69C133.337 63.6325 137 55.9048 137 47.3153V35.1575L110.632 8.59681C105.167 3.09236 97.7557 0 90.0275 0C81.5003 0 73.8286 3.68956 68.5 9.57033C63.1714 3.68956 55.4997 0 46.9725 0ZM88.2239 69C87.8954 68.6981 87.5731 68.3879 87.2574 68.0699L68.5 49.1756L49.7426 68.0699C49.4269 68.3879 49.1046 68.6981 48.7761 69C49.1046 69.3018 49.4269 69.612 49.7426 69.9301L68.5 88.8244L87.2574 69.9301C87.5731 69.612 87.8954 69.3018 88.2239 69ZM76.111 102.842V108.649C76.111 116.391 82.3418 122.667 90.0275 122.667C93.7183 122.667 97.258 121.19 99.8679 118.561L121.778 96.491V90.6846C121.778 82.9428 115.547 76.6666 107.861 76.6666C104.171 76.6666 100.631 78.1435 98.0211 80.7724L76.111 102.842ZM60.889 102.842L38.9789 80.7724C36.369 78.1435 32.8294 76.6666 29.1386 76.6666C21.4528 76.6666 15.2222 82.9428 15.2222 90.6846V96.491L37.1321 118.561C39.742 121.19 43.2817 122.667 46.9725 122.667C54.6582 122.667 60.889 116.391 60.889 108.649V102.842ZM60.889 29.3513V35.1575L38.9789 57.2275C36.369 59.8564 32.8294 61.3334 29.1386 61.3334C21.4528 61.3334 15.2222 55.0571 15.2222 47.3153V41.509L37.1321 19.4391C39.742 16.8102 43.2817 15.3333 46.9725 15.3333C54.6582 15.3333 60.889 21.6094 60.889 29.3513ZM98.0211 57.2275L76.111 35.1575V29.3513C76.111 21.6094 82.3418 15.3333 90.0275 15.3333C93.7183 15.3333 97.258 16.8102 99.8679 19.4391L121.778 41.509V47.3153C121.778 55.0571 115.547 61.3334 107.861 61.3334C104.171 61.3334 100.631 59.8564 98.0211 57.2275Z" fill="white"/>
</svg>
