<svg width="475" height="139" viewBox="0 0 475 139" fill="none" xmlns="http://www.w3.org/2000/svg">
<path d="M206.297 20.2388C206.041 19.8284 205.605 19.4179 204.99 19.0075C204.426 18.5458 203.76 18.3149 202.991 18.3149C201.812 18.3149 200.813 18.7254 199.992 19.5462C199.172 20.3157 198.762 21.4444 198.762 22.9321C198.762 24.1121 198.865 25.1894 199.07 26.1642H208.911L207.374 35.3986H200.531V63.4866C200.531 66.4109 200.069 68.8734 199.147 70.8742C198.275 72.875 197.148 74.5679 195.764 75.9531C194.38 77.3383 192.816 78.4926 191.074 79.416C189.382 80.3394 187.742 81.1859 186.153 81.9555L180.617 72.9519C183.077 71.6694 184.974 70.2842 186.307 68.7964C187.691 67.36 188.383 65.667 188.383 63.7175V35.3986H182.462V26.1642H188.383C188.075 25.3947 187.819 24.5995 187.614 23.7786C187.46 22.9578 187.383 22.0857 187.383 21.1622C187.383 19.264 187.716 17.5967 188.383 16.1602C189.049 14.6725 189.997 13.4156 191.227 12.3895C192.458 11.3635 193.893 10.5939 195.533 10.0809C197.225 9.51658 199.07 9.23442 201.069 9.23442C203.888 9.23442 206.118 9.69614 207.758 10.6196C209.449 11.543 210.91 12.6973 212.14 14.0825L206.297 20.2388Z" fill="#1E1E1E"/>
<path d="M243.192 46.2491C243.192 49.3272 243.397 51.8923 243.807 53.9444C244.217 55.9965 244.704 57.6382 245.268 58.8694C245.883 60.3572 246.601 61.5115 247.421 62.3323L237.657 65.4105C237.093 64.8974 236.58 64.2562 236.119 63.4866C235.709 62.8197 235.299 62.0245 234.889 61.1011C234.53 60.1263 234.222 58.9977 233.966 57.7151C233.095 60.1263 231.813 61.9989 230.122 63.3327C228.43 64.6153 226.2 65.2566 223.433 65.2566C220.921 65.2566 218.717 64.7948 216.82 63.8714C214.975 62.948 213.437 61.6654 212.207 60.0237C210.977 58.3308 210.054 56.3043 209.439 53.9444C208.875 51.5845 208.593 48.9681 208.593 46.0951C208.593 43.1709 209.055 40.4519 209.977 37.9381C210.951 35.4243 212.284 33.2696 213.976 31.474C215.667 29.6271 217.692 28.1906 220.05 27.1646C222.407 26.1385 225.022 25.6255 227.892 25.6255C229.481 25.6255 231.172 25.7538 232.966 26.0103C234.76 26.2155 236.401 26.472 237.887 26.7798C239.374 27.0363 240.604 27.2928 241.578 27.5494C242.603 27.7546 243.141 27.8572 243.192 27.8572V46.2491ZM225.432 56.33C226.2 56.33 226.918 55.9965 227.584 55.3296C228.302 54.6626 228.917 53.7648 229.43 52.6362C229.942 51.5075 230.327 50.225 230.583 48.7885C230.891 47.3008 231.044 45.736 231.044 44.0944V35.1677C230.685 35.0138 230.173 34.8856 229.507 34.783C228.891 34.6291 228.353 34.5521 227.892 34.5521C226.662 34.5521 225.637 34.8343 224.817 35.3986C223.996 35.9116 223.33 36.6555 222.817 37.6303C222.356 38.5537 222.023 39.6824 221.818 41.0162C221.613 42.3501 221.51 43.7865 221.51 45.3256C221.51 46.7621 221.536 48.1472 221.587 49.4811C221.639 50.7637 221.792 51.918 222.049 52.944C222.356 53.9701 222.766 54.7909 223.279 55.4065C223.791 56.0221 224.509 56.33 225.432 56.33ZM223.279 16.4681L237.272 0L245.268 7.6184C243.628 9.61919 241.834 11.4917 239.886 13.236C237.938 14.9803 236.119 16.4937 234.427 17.7763C232.428 19.3153 230.429 20.7005 228.43 21.9317L223.279 16.4681Z" fill="#1E1E1E"/>
<path d="M251.953 11.0813L264.101 9.00356V29.4732C266.1 26.9081 268.766 25.6255 272.097 25.6255C274.506 25.6255 276.608 26.0872 278.402 27.0107C280.247 27.9341 281.759 29.2423 282.938 30.9353C284.169 32.577 285.066 34.5778 285.629 36.9377C286.244 39.2976 286.552 41.9397 286.552 44.8639C286.552 47.7881 286.065 50.5071 285.091 53.021C284.169 55.4835 282.861 57.6382 281.17 59.4851C279.478 61.2806 277.454 62.6914 275.096 63.7175C272.738 64.7435 270.124 65.2566 267.254 65.2566C265.665 65.2566 263.999 65.154 262.256 64.9488C260.564 64.7435 258.975 64.5127 257.489 64.2562C256.054 63.9997 254.824 63.7688 253.798 63.5636C252.773 63.3071 252.158 63.1275 251.953 63.0249V11.0813ZM269.714 34.5521C268.894 34.5521 268.125 34.9112 267.407 35.6295C266.741 36.3477 266.152 37.2968 265.639 38.4767C265.178 39.6567 264.793 41.0419 264.486 42.6322C264.229 44.2226 264.101 45.8643 264.101 47.5573V55.7913C264.409 55.8939 264.87 56.0221 265.485 56.1761C266.152 56.2787 266.741 56.33 267.254 56.33C268.484 56.33 269.509 56.0734 270.329 55.5604C271.149 54.9961 271.79 54.2522 272.251 53.3288C272.764 52.354 273.123 51.2254 273.328 49.9428C273.533 48.609 273.635 47.1725 273.635 45.6334C273.635 44.197 273.609 42.8118 273.558 41.4779C273.507 40.1441 273.328 38.9641 273.02 37.9381C272.764 36.912 272.379 36.0912 271.867 35.4756C271.354 34.8599 270.637 34.5521 269.714 34.5521Z" fill="#1E1E1E"/>
<path d="M311.477 37.2455C310.913 37.2455 310.298 37.3994 309.632 37.7072C308.965 38.015 308.325 38.5024 307.71 39.1693C307.094 39.785 306.582 40.6058 306.172 41.6318C305.762 42.6066 305.557 43.7865 305.557 45.1717V64.7948H293.409V44.7869C293.409 41.7088 293.178 39.1693 292.717 37.1685C292.307 35.1164 291.82 33.4491 291.256 32.1666C290.641 30.7301 289.949 29.5758 289.18 28.7037L298.945 25.6255C299.355 26.1385 299.79 26.7285 300.252 27.3954C300.61 27.9598 300.995 28.678 301.405 29.5501C301.815 30.4223 302.148 31.4227 302.404 32.5513C303.686 30.0888 305.198 28.3189 306.941 27.2415C308.735 26.1642 310.836 25.6255 313.245 25.6255C314.322 25.6255 315.27 25.7281 316.09 25.9333C316.962 26.0872 317.679 26.2668 318.243 26.472L315.091 38.092C314.732 37.8868 314.245 37.7072 313.63 37.5533C313.066 37.3481 312.348 37.2455 311.477 37.2455Z" fill="#1E1E1E"/>
<path d="M331.501 65.1027C328.579 65.1027 326.222 64.3588 324.428 62.871C322.633 61.3319 321.736 59.1772 321.736 56.4069V26.1642H333.885V52.944C333.885 54.124 334.064 54.9191 334.423 55.3296C334.782 55.74 335.32 55.9452 336.037 55.9452C336.447 55.9452 336.857 55.9195 337.268 55.8682C337.678 55.7656 337.934 55.6887 338.036 55.6374L339.113 63.2558C339.062 63.3071 338.831 63.4353 338.421 63.6405C338.011 63.7944 337.473 63.9997 336.806 64.2562C336.14 64.4614 335.345 64.6409 334.423 64.7948C333.5 65.0001 332.526 65.1027 331.501 65.1027ZM327.964 7.6184C330.117 7.6184 331.757 8.25968 332.885 9.54223C334.013 10.8248 334.576 12.4408 334.576 14.3903C334.576 16.3911 333.987 18.0584 332.808 19.3923C331.68 20.7261 329.963 21.3931 327.657 21.3931C325.504 21.3931 323.838 20.7518 322.659 19.4692C321.531 18.1354 320.968 16.5707 320.968 14.7751C320.968 12.723 321.557 11.03 322.736 9.69614C323.915 8.31098 325.658 7.6184 327.964 7.6184Z" fill="#1E1E1E"/>
<path d="M364.882 37.0916C364.267 36.3734 363.626 35.7577 362.96 35.2447C362.293 34.7317 361.447 34.4752 360.422 34.4752C359.807 34.4752 359.115 34.5778 358.346 34.783C357.578 34.9882 356.86 35.4756 356.194 36.2451C355.527 36.9633 354.963 38.0407 354.502 39.4771C354.092 40.8623 353.887 42.7861 353.887 45.2487C353.887 47.6599 354.118 49.6094 354.579 51.0971C355.092 52.5336 355.707 53.6366 356.424 54.4061C357.193 55.1757 358.013 55.6887 358.885 55.9452C359.807 56.2017 360.679 56.33 361.499 56.33C362.114 56.33 362.78 56.253 363.498 56.0991C364.215 55.9452 364.882 55.7913 365.497 55.6374C366.163 55.4322 366.727 55.2526 367.188 55.0987C367.65 54.8935 367.906 54.7909 367.957 54.7909L370.187 62.871L369.341 63.2558C368.777 63.5636 367.983 63.897 366.958 64.2562C365.984 64.564 364.779 64.8461 363.344 65.1027C361.96 65.3592 360.422 65.4874 358.731 65.4874C355.604 65.4874 352.913 65.0257 350.658 64.1023C348.402 63.1788 346.557 61.8963 345.122 60.2546C343.687 58.6129 342.636 56.6378 341.97 54.3292C341.303 51.9693 340.97 49.3785 340.97 46.5569C340.97 43.1196 341.431 40.0928 342.354 37.4764C343.328 34.8086 344.635 32.577 346.275 30.7814C347.967 28.9858 349.94 27.652 352.195 26.7798C354.502 25.8564 356.988 25.3947 359.653 25.3947C362.165 25.3947 364.369 25.9077 366.266 26.9337C368.162 27.9085 369.7 29.2167 370.879 30.8584L364.882 37.0916Z" fill="#1E1E1E"/>
<path d="M406.26 46.2491C406.26 49.3272 406.465 51.8923 406.875 53.9444C407.285 55.9965 407.772 57.6382 408.336 58.8694C408.951 60.3572 409.669 61.5115 410.489 62.3323L400.725 65.4105C400.161 64.8974 399.648 64.2562 399.187 63.4866C398.777 62.8197 398.367 62.0245 397.957 61.1011C397.598 60.1263 397.29 58.9977 397.034 57.7151C396.163 60.1263 394.881 61.9989 393.19 63.3327C391.498 64.6153 389.268 65.2566 386.501 65.2566C383.989 65.2566 381.785 64.7948 379.888 63.8714C378.043 62.948 376.505 61.6654 375.275 60.0237C374.045 58.3308 373.122 56.3043 372.507 53.9444C371.943 51.5845 371.662 48.9681 371.662 46.0951C371.662 43.1709 372.123 40.4519 373.045 37.9381C374.019 35.4243 375.352 33.2696 377.044 31.474C378.735 29.6271 380.76 28.1906 383.118 27.1646C385.475 26.1385 388.09 25.6255 390.96 25.6255C392.549 25.6255 394.24 25.7538 396.034 26.0103C397.828 26.2155 399.469 26.472 400.955 26.7798C402.442 27.0363 403.672 27.2928 404.646 27.5494C405.671 27.7546 406.209 27.8572 406.26 27.8572V46.2491ZM388.5 56.33C389.268 56.33 389.986 55.9965 390.652 55.3296C391.37 54.6626 391.985 53.7648 392.498 52.6362C393.01 51.5075 393.395 50.225 393.651 48.7885C393.959 47.3008 394.112 45.736 394.112 44.0944V35.1677C393.753 35.0138 393.241 34.8856 392.575 34.783C391.959 34.6291 391.421 34.5521 390.96 34.5521C389.73 34.5521 388.705 34.8343 387.884 35.3986C387.064 35.9116 386.398 36.6555 385.885 37.6303C385.424 38.5537 385.091 39.6824 384.886 41.0162C384.681 42.3501 384.578 43.7865 384.578 45.3256C384.578 46.7621 384.604 48.1472 384.655 49.4811C384.707 50.7637 384.86 51.918 385.117 52.944C385.424 53.9701 385.834 54.7909 386.347 55.4065C386.859 56.0221 387.577 56.33 388.5 56.33Z" fill="#1E1E1E"/>
<path d="M207.22 103.052C206.605 102.333 205.964 101.718 205.298 101.205C204.631 100.692 203.785 100.435 202.76 100.435C202.145 100.435 201.453 100.538 200.684 100.743C199.916 100.948 199.198 101.436 198.532 102.205C197.865 102.923 197.301 104.001 196.84 105.437C196.43 106.822 196.225 108.746 196.225 111.209C196.225 113.62 196.456 115.569 196.917 117.057C197.43 118.494 198.045 119.597 198.762 120.366C199.531 121.136 200.351 121.649 201.223 121.905C202.145 122.162 203.017 122.29 203.837 122.29C204.452 122.29 205.118 122.213 205.836 122.059C206.553 121.905 207.22 121.751 207.835 121.598C208.501 121.392 209.065 121.213 209.526 121.059C209.988 120.854 210.244 120.751 210.295 120.751L212.525 128.831L211.679 129.216C211.115 129.524 210.321 129.857 209.296 130.216C208.322 130.524 207.117 130.806 205.682 131.063C204.298 131.319 202.76 131.448 201.069 131.448C197.942 131.448 195.251 130.986 192.996 130.062C190.74 129.139 188.895 127.856 187.46 126.215C186.025 124.573 184.974 122.598 184.308 120.289C183.641 117.929 183.308 115.339 183.308 112.517C183.308 109.08 183.769 106.053 184.692 103.436C185.666 100.769 186.973 98.5371 188.613 96.7415C190.305 94.946 192.278 93.6121 194.534 92.74C196.84 91.8165 199.326 91.3548 201.991 91.3548C204.503 91.3548 206.707 91.8678 208.604 92.8939C210.5 93.8686 212.038 95.1768 213.217 96.8185L207.22 103.052Z" fill="#1E1E1E"/>
<path d="M248.598 112.209C248.598 115.287 248.803 117.852 249.214 119.905C249.624 121.957 250.111 123.598 250.674 124.83C251.289 126.317 252.007 127.472 252.827 128.292L243.063 131.371C242.499 130.858 241.986 130.216 241.525 129.447C241.115 128.78 240.705 127.985 240.295 127.061C239.936 126.086 239.628 124.958 239.372 123.675C238.501 126.086 237.219 127.959 235.528 129.293C233.836 130.575 231.607 131.217 228.839 131.217C226.327 131.217 224.123 130.755 222.226 129.832C220.381 128.908 218.843 127.626 217.613 125.984C216.383 124.291 215.46 122.264 214.845 119.905C214.281 117.545 214 114.928 214 112.055C214 109.131 214.461 106.412 215.384 103.898C216.357 101.384 217.69 99.2297 219.382 97.4341C221.073 95.5872 223.098 94.1508 225.456 93.1247C227.813 92.0987 230.428 91.5856 233.298 91.5856C234.887 91.5856 236.579 91.7139 238.373 91.9704C240.167 92.1756 241.807 92.4321 243.293 92.74C244.78 92.9965 246.01 93.253 246.984 93.5095C248.009 93.7147 248.547 93.8173 248.598 93.8173V112.209ZM230.838 122.29C231.607 122.29 232.324 121.957 232.99 121.29C233.708 120.623 234.323 119.725 234.836 118.596C235.348 117.468 235.733 116.185 235.989 114.749C236.297 113.261 236.45 111.696 236.45 110.054V101.128C236.092 100.974 235.579 100.846 234.913 100.743C234.298 100.589 233.759 100.512 233.298 100.512C232.068 100.512 231.043 100.794 230.223 101.359C229.402 101.872 228.736 102.616 228.224 103.59C227.762 104.514 227.429 105.642 227.224 106.976C227.019 108.31 226.916 109.747 226.916 111.286C226.916 112.722 226.942 114.107 226.993 115.441C227.045 116.724 227.198 117.878 227.455 118.904C227.762 119.93 228.172 120.751 228.685 121.367C229.197 121.982 229.915 122.29 230.838 122.29Z" fill="#1E1E1E"/>
<path d="M275.079 103.206C274.515 103.206 273.9 103.36 273.234 103.667C272.567 103.975 271.927 104.463 271.312 105.129C270.697 105.745 270.184 106.566 269.774 107.592C269.364 108.567 269.159 109.747 269.159 111.132V130.755H257.011V110.747C257.011 107.669 256.78 105.129 256.319 103.129C255.909 101.077 255.422 99.4093 254.858 98.1267C254.243 96.6902 253.551 95.5359 252.782 94.6638L262.547 91.5856C262.957 92.0987 263.392 92.6887 263.854 93.3556C264.213 93.9199 264.597 94.6381 265.007 95.5103C265.417 96.3824 265.75 97.3828 266.007 98.5115C267.288 96.049 268.8 94.279 270.543 93.2017C272.337 92.1243 274.438 91.5856 276.847 91.5856C277.924 91.5856 278.872 91.6883 279.692 91.8935C280.564 92.0474 281.281 92.2269 281.845 92.4321L278.693 104.052C278.334 103.847 277.847 103.667 277.232 103.513C276.668 103.308 275.95 103.206 275.079 103.206Z" fill="#1E1E1E"/>
<path d="M295.103 131.063C292.181 131.063 289.824 130.319 288.03 128.831C286.236 127.292 285.339 125.137 285.339 122.367V92.1243H297.487V118.904C297.487 120.084 297.666 120.879 298.025 121.29C298.384 121.7 298.922 121.905 299.639 121.905C300.05 121.905 300.46 121.88 300.87 121.828C301.28 121.726 301.536 121.649 301.639 121.598L302.715 129.216C302.664 129.267 302.433 129.395 302.023 129.601C301.613 129.755 301.075 129.96 300.408 130.216C299.742 130.422 298.947 130.601 298.025 130.755C297.102 130.96 296.128 131.063 295.103 131.063ZM291.566 73.5785C293.719 73.5785 295.359 74.2198 296.487 75.5024C297.615 76.7849 298.179 78.401 298.179 80.3504C298.179 82.3512 297.589 84.0186 296.41 85.3524C295.283 86.6863 293.565 87.3532 291.259 87.3532C289.106 87.3532 287.44 86.7119 286.261 85.4294C285.134 84.0955 284.57 82.5308 284.57 80.7352C284.57 78.6831 285.159 76.9901 286.338 75.6563C287.517 74.2711 289.26 73.5785 291.566 73.5785Z" fill="#1E1E1E"/>
<path d="M347.629 130.755V106.745C347.629 104.95 347.475 103.513 347.167 102.436C346.86 101.307 346.168 100.743 345.091 100.743C343.861 100.743 342.708 101.641 341.631 103.436C340.555 105.181 340.017 107.515 340.017 110.439V130.755H327.792V106.745C327.792 104.95 327.638 103.513 327.331 102.436C327.074 101.307 326.382 100.743 325.255 100.743C323.973 100.743 322.794 101.667 321.718 103.513C320.693 105.309 320.18 107.746 320.18 110.824V130.755H308.032V110.747C308.032 107.669 307.801 105.129 307.34 103.129C306.93 101.077 306.443 99.4093 305.879 98.1267C305.264 96.6902 304.572 95.5359 303.803 94.6638L313.568 91.5856C313.978 92.0987 314.414 92.6887 314.875 93.3556C315.285 93.9199 315.669 94.6638 316.028 95.5872C316.438 96.4594 316.797 97.4598 317.105 98.5884C318.335 96.1772 320.026 94.4073 322.179 93.2786C324.383 92.15 326.818 91.5856 329.483 91.5856C331.739 91.5856 333.558 92.0474 334.942 92.9708C336.378 93.843 337.531 95.1255 338.402 96.8185C339.735 94.9716 341.324 93.6377 343.169 92.8169C345.014 91.9961 347.065 91.5856 349.32 91.5856C351.319 91.5856 352.985 91.9191 354.318 92.586C355.65 93.2017 356.701 94.0995 357.47 95.2794C358.29 96.4081 358.88 97.8189 359.238 99.5119C359.597 101.154 359.777 102.975 359.777 104.976V130.755H347.629Z" fill="#1E1E1E"/>
<path d="M367.454 77.0414L379.602 74.9637V95.4333C381.601 92.8682 384.266 91.5856 387.598 91.5856C390.007 91.5856 392.109 92.0474 393.903 92.9708C395.748 93.8943 397.26 95.2025 398.439 96.8954C399.669 98.5371 400.566 100.538 401.13 102.898C401.745 105.258 402.053 107.9 402.053 110.824C402.053 113.748 401.566 116.467 400.592 118.981C399.669 121.444 398.362 123.598 396.671 125.445C394.979 127.241 392.954 128.652 390.597 129.678C388.239 130.704 385.625 131.217 382.754 131.217C381.165 131.217 379.499 131.114 377.757 130.909C376.065 130.704 374.476 130.473 372.99 130.216C371.554 129.96 370.324 129.729 369.299 129.524C368.274 129.267 367.659 129.088 367.454 128.985V77.0414ZM385.215 100.512C384.394 100.512 383.626 100.871 382.908 101.59C382.242 102.308 381.652 103.257 381.14 104.437C380.678 105.617 380.294 107.002 379.986 108.592C379.73 110.183 379.602 111.824 379.602 113.517V121.751C379.909 121.854 380.371 121.982 380.986 122.136C381.652 122.239 382.242 122.29 382.754 122.29C383.984 122.29 385.009 122.034 385.83 121.521C386.65 120.956 387.29 120.212 387.752 119.289C388.264 118.314 388.623 117.186 388.828 115.903C389.033 114.569 389.136 113.133 389.136 111.594C389.136 110.157 389.11 108.772 389.059 107.438C389.008 106.104 388.828 104.924 388.521 103.898C388.264 102.872 387.88 102.051 387.367 101.436C386.855 100.82 386.137 100.512 385.215 100.512Z" fill="#1E1E1E"/>
<path d="M423.671 91.3548C429.771 91.3548 434.205 93.0991 436.973 96.5876C439.792 100.076 441.202 104.899 441.202 111.055C441.202 113.979 440.817 116.698 440.048 119.212C439.331 121.674 438.203 123.829 436.665 125.676C435.179 127.472 433.282 128.908 430.976 129.985C428.72 131.011 426.081 131.525 423.056 131.525C419.981 131.525 417.316 131.088 415.06 130.216C412.856 129.293 411.036 127.985 409.601 126.292C408.217 124.599 407.167 122.547 406.449 120.135C405.783 117.673 405.449 114.928 405.449 111.901C405.449 108.977 405.808 106.258 406.526 103.744C407.295 101.23 408.422 99.0758 409.909 97.2802C411.447 95.4333 413.343 93.9969 415.598 92.9708C417.905 91.8935 420.596 91.3548 423.671 91.3548ZM422.979 100.512C422.057 100.512 421.288 100.794 420.673 101.359C420.058 101.872 419.571 102.616 419.212 103.59C418.904 104.514 418.674 105.617 418.52 106.899C418.418 108.182 418.366 109.567 418.366 111.055C418.366 112.594 418.443 114.056 418.597 115.441C418.751 116.826 419.007 118.032 419.366 119.058C419.776 120.084 420.34 120.905 421.057 121.521C421.775 122.085 422.672 122.367 423.748 122.367C424.671 122.367 425.44 122.085 426.055 121.521C426.67 120.956 427.131 120.212 427.439 119.289C427.798 118.314 428.028 117.186 428.131 115.903C428.285 114.62 428.362 113.261 428.362 111.824C428.362 110.234 428.285 108.772 428.131 107.438C427.977 106.053 427.695 104.847 427.285 103.821C426.926 102.795 426.388 102 425.671 101.436C424.953 100.82 424.056 100.512 422.979 100.512Z" fill="#1E1E1E"/>
<path d="M458.849 91.4317C460.797 91.4317 462.591 91.6113 464.231 91.9704C465.923 92.2782 467.409 92.6373 468.691 93.0478C470.177 93.5608 471.536 94.0995 472.766 94.6638L468.921 103.283C468.511 103.077 467.973 102.821 467.307 102.513C466.692 102.205 466 101.897 465.231 101.59C464.513 101.282 463.744 101.025 462.924 100.82C462.104 100.615 461.31 100.512 460.541 100.512C459.721 100.512 459.029 100.692 458.465 101.051C457.901 101.41 457.619 101.974 457.619 102.744C457.619 103.565 458.132 104.386 459.157 105.206C460.233 105.976 461.643 106.72 463.386 107.438C466.461 108.721 468.819 110.26 470.459 112.055C472.151 113.8 472.996 116.159 472.996 119.135C472.996 120.777 472.689 122.367 472.074 123.906C471.51 125.394 470.639 126.702 469.46 127.831C468.332 128.959 466.897 129.857 465.154 130.524C463.411 131.191 461.412 131.525 459.157 131.525C457.363 131.525 455.671 131.396 454.082 131.14C452.545 130.883 451.109 130.575 449.777 130.216C448.495 129.806 447.342 129.421 446.317 129.062C445.292 128.652 444.472 128.292 443.857 127.985L447.855 119.135C448.111 119.238 448.547 119.468 449.162 119.828C449.828 120.187 450.571 120.546 451.391 120.905C452.263 121.264 453.16 121.598 454.082 121.905C455.056 122.162 455.979 122.29 456.85 122.29C457.927 122.29 458.798 122.085 459.464 121.674C460.182 121.264 460.541 120.648 460.541 119.828C460.541 118.853 460.105 117.981 459.234 117.211C458.414 116.442 457.337 115.8 456.005 115.287C452.16 113.748 449.392 112.03 447.701 110.131C446.061 108.182 445.24 105.771 445.24 102.898C445.24 101.256 445.548 99.7427 446.163 98.3576C446.778 96.9724 447.675 95.7668 448.854 94.7407C450.033 93.7147 451.443 92.9195 453.083 92.3552C454.774 91.7395 456.697 91.4317 458.849 91.4317Z" fill="#1E1E1E"/>
<path d="M446.27 65.2346C446.197 65.1979 446.032 65.033 445.776 64.7399C445.52 64.4101 445.227 63.9703 444.897 63.4207C444.604 62.871 444.311 62.1931 444.019 61.3869C443.726 60.5441 443.543 59.573 443.469 58.4737C442.847 60.6723 441.84 62.3397 440.449 63.4756C439.094 64.575 437.245 65.1246 434.902 65.1246C433.181 65.1246 431.68 64.8132 430.399 64.1902C429.154 63.5306 428.11 62.6145 427.268 61.4419C426.426 60.2326 425.804 58.7851 425.401 57.0995C424.998 55.4138 424.797 53.545 424.797 51.4929C424.797 49.4041 425.108 47.4803 425.731 45.7214C426.39 43.9258 427.287 42.3867 428.422 41.1042C429.593 39.8216 430.984 38.8139 432.595 38.081C434.206 37.3481 435.982 36.9817 437.923 36.9817C438.582 36.9817 439.277 37.0183 440.009 37.0916C440.778 37.1649 441.529 37.2565 442.261 37.3664V24.9439L448.522 26.0433V51.5479C448.522 53.7465 448.65 55.5787 448.906 57.0445C449.163 58.4737 449.455 59.6463 449.785 60.5624C450.115 61.4419 450.407 62.0832 450.664 62.4862C450.957 62.8893 451.121 63.1458 451.158 63.2558L446.27 65.2346ZM435.945 60.6723C436.861 60.6723 437.703 60.3609 438.472 59.7379C439.241 59.1149 439.9 58.3088 440.449 57.3194C441.035 56.2933 441.474 55.139 441.767 53.8565C442.096 52.5739 442.261 51.2547 442.261 49.8988V41.9836C441.895 41.8737 441.346 41.7454 440.614 41.5989C439.881 41.4523 439.222 41.379 438.637 41.379C437.245 41.379 436.092 41.6172 435.177 42.0936C434.298 42.5699 433.584 43.2295 433.035 44.0724C432.486 44.9152 432.101 45.9229 431.881 47.0955C431.662 48.2682 431.552 49.5507 431.552 50.9432C431.552 52.2258 431.589 53.4534 431.662 54.626C431.735 55.7986 431.918 56.843 432.211 57.7591C432.54 58.6386 432.998 59.3531 433.584 59.9028C434.17 60.4158 434.957 60.6723 435.945 60.6723Z" fill="#1E1E1E"/>
<path d="M452.593 51.7677C452.593 49.3125 452.923 47.1505 453.582 45.2816C454.277 43.4128 455.211 41.8554 456.383 40.6095C457.591 39.3269 459 38.3741 460.611 37.7512C462.222 37.0916 463.961 36.7618 465.829 36.7618C467.476 36.7618 468.867 36.9633 470.002 37.3664C471.174 37.7695 472.126 38.3192 472.858 39.0154C473.59 39.7117 474.121 40.5362 474.451 41.4889C474.817 42.4417 475 43.4677 475 44.5671C475 45.8863 474.634 47.1505 473.902 48.3598C473.169 49.5324 472.108 50.5768 470.716 51.4929C469.362 52.3724 467.714 53.0869 465.774 53.6366C463.833 54.1496 461.655 54.4244 459.238 54.4611C459.348 55.3039 459.513 56.1101 459.733 56.8796C459.989 57.6125 460.337 58.2721 460.776 58.8584C461.252 59.4081 461.856 59.8478 462.588 60.1776C463.321 60.5074 464.236 60.6723 465.334 60.6723C466.14 60.6723 467 60.5807 467.915 60.3975C468.831 60.2143 469.673 59.9944 470.442 59.7379C471.357 59.4447 472.254 59.1149 473.133 58.7485L474.78 62.6511C473.828 63.1275 472.803 63.5489 471.705 63.9154C470.753 64.2452 469.655 64.5383 468.41 64.7948C467.165 65.0514 465.847 65.1796 464.456 65.1796C462.332 65.1796 460.52 64.8681 459.019 64.2452C457.518 63.5856 456.291 62.6695 455.339 61.4968C454.387 60.3242 453.692 58.9134 453.252 57.2644C452.813 55.6154 452.593 53.7832 452.593 51.7677ZM465.334 41.0492C464.126 41.0492 463.119 41.3423 462.314 41.9287C461.545 42.4783 460.922 43.2112 460.447 44.1273C459.971 45.0068 459.623 46.0145 459.403 47.1505C459.22 48.2498 459.11 49.3675 459.074 50.5035C460.831 50.4302 462.314 50.2103 463.522 49.8439C464.767 49.4408 465.774 48.9644 466.542 48.4147C467.311 47.8284 467.861 47.2055 468.19 46.5459C468.556 45.8863 468.739 45.2267 468.739 44.5671C468.739 43.5044 468.428 42.6616 467.806 42.0386C467.183 41.379 466.359 41.0492 465.334 41.0492Z" fill="#1E1E1E"/>
<path fill-rule="evenodd" clip-rule="evenodd" d="M47.0743 1.58305C39.3294 1.58305 31.902 4.66235 26.4256 10.1435L0 36.592V48.6985C0 57.2517 3.67077 64.9467 9.52158 70.2915C3.67077 75.6363 0 83.3314 0 91.8845V103.991L26.4256 130.44C31.902 135.921 39.3294 139 47.0743 139C55.62 139 63.3083 135.326 68.6485 129.47C73.9886 135.326 81.6769 139 90.2226 139C97.9675 139 105.395 135.921 110.871 130.44L137.297 103.991V91.8845C137.297 83.3314 133.626 75.6363 127.775 70.2915C133.626 64.9467 137.297 57.2517 137.297 48.6985V36.592L110.871 10.1435C105.395 4.66235 97.9675 1.58305 90.2226 1.58305C81.6769 1.58305 73.9886 5.25702 68.6485 11.1129C63.3083 5.25702 55.62 1.58305 47.0743 1.58305ZM88.4151 70.2915C88.0859 69.9909 87.7629 69.6821 87.4465 69.3653L68.6485 50.5509L49.8505 69.3653C49.534 69.6821 49.211 69.9909 48.8818 70.2915C49.211 70.5921 49.534 70.9009 49.8505 71.2177L68.6485 90.0321L87.4465 71.2177C87.7629 70.9009 88.0859 70.5921 88.4151 70.2915ZM76.276 103.991V109.773C76.276 117.482 82.5203 123.732 90.2226 123.732C93.9214 123.732 97.4688 122.261 100.084 119.643L122.042 97.6663V91.8845C122.042 84.1754 115.798 77.9257 108.095 77.9257C104.396 77.9257 100.849 79.3964 98.2335 82.0142L76.276 103.991ZM61.0209 103.991L39.0634 82.0142C36.4479 79.3964 32.9006 77.9257 29.2018 77.9257C21.4993 77.9257 15.2552 84.1754 15.2552 91.8845V97.6663L37.2126 119.643C39.8281 122.261 43.3755 123.732 47.0743 123.732C54.7767 123.732 61.0209 117.482 61.0209 109.773V103.991ZM61.0209 30.8103V36.592L39.0634 58.5688C36.4479 61.1866 32.9006 62.6573 29.2018 62.6573C21.4993 62.6573 15.2552 56.4076 15.2552 48.6985V42.9167L37.2126 20.94C39.8281 18.3223 43.3755 16.8516 47.0743 16.8516C54.7767 16.8516 61.0209 23.1011 61.0209 30.8103ZM98.2335 58.5688L76.276 36.592V30.8103C76.276 23.1011 82.5203 16.8516 90.2226 16.8516C93.9214 16.8516 97.4688 18.3223 100.084 20.94L122.042 42.9167V48.6985C122.042 56.4076 115.798 62.6573 108.095 62.6573C104.396 62.6573 100.849 61.1866 98.2335 58.5688Z" fill="#900280"/>
</svg>
